<svg xmlns="http://www.w3.org/2000/svg" width="27.500" height="32.500" viewBox="0 0 27.500 32.500" fill="none">
  <path d="M 27.134 6.616 L 20.884 0.366 C 20.768 0.25 20.63 0.158 20.479 0.095 C 20.327 0.032 20.164 0 20 0 L 7.5 0 C 6.837 0 6.201 0.263 5.732 0.732 C 5.263 1.201 5 1.837 5 2.5 L 5 5 L 2.5 5 C 1.837 5 1.201 5.263 0.732 5.732 C 0.263 6.201 0 6.837 0 7.5 L 0 30 C 0 30.663 0.263 31.299 0.732 31.768 C 1.201 32.237 1.837 32.5 2.5 32.5 L 20 32.5 C 20.663 32.5 21.299 32.237 21.768 31.768 C 22.237 31.299 22.5 30.663 22.5 30 L 22.5 27.5 L 25 27.5 C 25.663 27.5 26.299 27.237 26.768 26.768 C 27.237 26.299 27.5 25.663 27.5 25 L 27.5 7.5 C 27.5 7.336 27.468 7.173 27.405 7.021 C 27.342 6.87 27.25 6.732 27.134 6.616 Z M 15 26.25 L 7.5 26.25 C 7.168 26.25 6.851 26.118 6.616 25.884 C 6.382 25.649 6.25 25.332 6.25 25 C 6.25 24.668 6.382 24.351 6.616 24.116 C 6.851 23.882 7.168 23.75 7.5 23.75 L 15 23.75 C 15.332 23.75 15.649 23.882 15.884 24.116 C 16.118 24.351 16.25 24.668 16.25 25 C 16.25 25.332 16.118 25.649 15.884 25.884 C 15.649 26.118 15.332 26.25 15 26.25 Z M 15 21.25 L 7.5 21.25 C 7.168 21.25 6.851 21.118 6.616 20.884 C 6.382 20.649 6.25 20.332 6.25 20 C 6.25 19.668 6.382 19.351 6.616 19.116 C 6.851 18.882 7.168 18.75 7.5 18.75 L 15 18.75 C 15.332 18.75 15.649 18.882 15.884 19.116 C 16.118 19.351 16.25 19.668 16.25 20 C 16.25 20.332 16.118 20.649 15.884 20.884 C 15.649 21.118 15.332 21.25 15 21.25 Z M 25 25 L 22.5 25 L 22.5 12.5 C 22.5 12.336 22.468 12.173 22.405 12.021 C 22.342 11.87 22.25 11.732 22.134 11.616 L 15.884 5.366 C 15.768 5.25 15.63 5.158 15.479 5.095 C 15.327 5.032 15.164 5 15 5 L 7.5 5 L 7.5 2.5 L 19.483 2.5 L 25 8.017 L 25 25 Z" fill="currentColor" fill-rule="nonzero"></path>
</svg>