<svg xmlns="http://www.w3.org/2000/svg" width="45" height="63" viewBox="0 0 45 63" fill="none">
  <path d="M 38.246 0 C 37.879 0 37.513 0.03 37.152 0.09 L 1.885 5.864 C 1.359 5.95 0.881 6.22 0.536 6.627 C 0.19 7.033 0 7.549 0 8.082 L 0 60.75 C 0 61.075 0.07 61.396 0.206 61.691 C 0.342 61.986 0.54 62.248 0.787 62.459 C 1.033 62.67 1.323 62.826 1.635 62.914 C 1.948 63.003 2.276 63.023 2.596 62.973 L 39.294 57.236 C 40.884 56.987 42.333 56.178 43.379 54.955 C 44.425 53.732 45 52.176 45 50.567 L 45 6.75 C 45 5.863 44.825 4.985 44.486 4.166 C 44.146 3.347 43.649 2.602 43.021 1.975 C 42.394 1.349 41.649 0.851 40.83 0.513 C 40.011 0.174 39.132 -0.001 38.246 0 Z M 38.592 52.785 L 4.495 58.127 L 4.495 9.999 L 37.886 4.527 C 38.207 4.475 38.537 4.493 38.851 4.581 C 39.165 4.669 39.456 4.824 39.704 5.035 C 39.953 5.247 40.152 5.509 40.289 5.806 C 40.425 6.102 40.496 6.424 40.496 6.75 L 40.496 50.567 C 40.494 51.103 40.302 51.62 39.953 52.027 C 39.604 52.434 39.121 52.703 38.592 52.785 Z" fill="currentColor" fill-rule="evenodd"></path>
</svg>