<svg xmlns="http://www.w3.org/2000/svg" width="85" height="63" viewBox="0 0 85 63" fill="none">
  <path d="M 4.387 0 C 3.224 0 2.108 0.457 1.285 1.269 C 0.462 2.082 0 3.184 0 4.333 C 0 5.483 0.462 6.585 1.285 7.397 C 2.108 8.21 3.224 8.667 4.387 8.667 C 5.551 8.667 6.667 8.21 7.489 7.397 C 8.312 6.585 8.774 5.483 8.774 4.333 C 8.774 3.184 8.312 2.082 7.489 1.269 C 6.667 0.457 5.551 0 4.387 0 Z M 19.742 0 C 18.578 0 17.463 0.457 16.64 1.269 C 15.817 2.082 15.355 3.184 15.355 4.333 C 15.355 5.483 15.817 6.585 16.64 7.397 C 17.463 8.21 18.578 8.667 19.742 8.667 L 63.613 8.667 C 64.776 8.667 65.892 8.21 66.715 7.397 C 67.538 6.585 68 5.483 68 4.333 C 68 3.184 67.538 2.082 66.715 1.269 C 65.892 0.457 64.776 0 63.613 0 L 19.742 0 Z M 20.181 21.667 C 18.901 21.667 17.673 22.169 16.768 23.063 C 15.863 23.957 15.355 25.169 15.355 26.433 C 15.355 27.698 15.863 28.91 16.768 29.804 C 17.673 30.698 18.901 31.2 20.181 31.2 L 45.626 31.2 C 46.906 31.2 48.133 30.698 49.038 29.804 C 49.943 28.91 50.452 27.698 50.452 26.433 C 50.452 25.169 49.943 23.957 49.038 23.063 C 48.133 22.169 46.906 21.667 45.626 21.667 L 20.181 21.667 Z M 15.355 47.667 C 15.355 46.517 15.817 45.415 16.64 44.603 C 17.463 43.79 18.578 43.333 19.742 43.333 L 32.903 43.333 C 34.067 43.333 35.183 43.79 36.005 44.603 C 36.828 45.415 37.29 46.517 37.29 47.667 C 37.29 48.816 36.828 49.918 36.005 50.731 C 35.183 51.543 34.067 52 32.903 52 L 19.742 52 C 18.578 52 17.463 51.543 16.64 50.731 C 15.817 49.918 15.355 48.816 15.355 47.667 Z M 0 26 C 0 24.851 0.462 23.749 1.285 22.936 C 2.108 22.123 3.224 21.667 4.387 21.667 C 5.551 21.667 6.667 22.123 7.489 22.936 C 8.312 23.749 8.774 24.851 8.774 26 C 8.774 27.149 8.312 28.251 7.489 29.064 C 6.667 29.877 5.551 30.333 4.387 30.333 C 3.224 30.333 2.108 29.877 1.285 29.064 C 0.462 28.251 0 27.149 0 26 Z M 4.387 43.333 C 3.224 43.333 2.108 43.79 1.285 44.603 C 0.462 45.415 0 46.517 0 47.667 C 0 48.816 0.462 49.918 1.285 50.731 C 2.108 51.543 3.224 52 4.387 52 C 5.551 52 6.667 51.543 7.489 50.731 C 8.312 49.918 8.774 48.816 8.774 47.667 C 8.774 46.517 8.312 45.415 7.489 44.603 C 6.667 43.79 5.551 43.333 4.387 43.333 Z" fill="currentColor" fill-rule="nonzero"></path>
  <path d="M 71.875 32.375 C 71.875 31.215 71.414 30.102 70.594 29.281 C 69.773 28.461 68.66 28 67.5 28 C 66.34 28 65.227 28.461 64.406 29.281 C 63.586 30.102 63.125 31.215 63.125 32.375 L 63.125 41.344 L 54.375 41.344 C 53.215 41.344 52.102 41.805 51.281 42.625 C 50.461 43.446 50 44.558 50 45.719 C 50 46.879 50.461 47.992 51.281 48.812 C 52.102 49.633 53.215 50.094 54.375 50.094 L 63.125 50.094 L 63.125 58.625 C 63.125 59.785 63.586 60.898 64.406 61.719 C 65.227 62.539 66.34 63 67.5 63 C 68.66 63 69.773 62.539 70.594 61.719 C 71.414 60.898 71.875 59.785 71.875 58.625 L 71.875 50.094 L 80.625 50.094 C 81.785 50.094 82.898 49.633 83.719 48.812 C 84.539 47.992 85 46.879 85 45.719 C 85 44.558 84.539 43.446 83.719 42.625 C 82.898 41.805 81.785 41.344 80.625 41.344 L 71.875 41.344 L 71.875 32.375 Z" fill="currentColor" fill-rule="nonzero"></path>
</svg>