<svg xmlns="http://www.w3.org/2000/svg" width="45" height="63" viewBox="0 0 45 63" fill="none">
  <path d="M 43.11 5.872 L 7.848 0.09 C 6.881 -0.069 5.892 -0.016 4.947 0.245 C 4.003 0.507 3.128 0.971 2.381 1.605 C 1.634 2.239 1.034 3.028 0.623 3.917 C 0.212 4.806 -0.001 5.774 0 6.753 L 0 50.568 C 0 52.177 0.575 53.734 1.621 54.956 C 2.667 56.179 4.116 56.988 5.706 57.236 L 42.404 62.973 C 42.724 63.023 43.052 63.003 43.365 62.914 C 43.677 62.826 43.967 62.67 44.213 62.459 C 44.46 62.248 44.658 61.986 44.794 61.691 C 44.93 61.396 45 61.075 45 60.75 L 45 8.09 C 44.999 7.556 44.809 7.04 44.463 6.633 C 44.116 6.227 43.637 5.957 43.11 5.872 Z M 7.11 4.531 L 40.5 10.002 L 40.5 58.118 L 6.404 52.782 C 5.874 52.7 5.391 52.431 5.042 52.024 C 4.693 51.618 4.501 51.1 4.5 50.564 L 4.5 6.753 C 4.5 6.427 4.57 6.105 4.707 5.809 C 4.843 5.513 5.043 5.25 5.291 5.039 C 5.539 4.827 5.831 4.672 6.145 4.585 C 6.459 4.497 6.788 4.479 7.11 4.531 Z" fill="currentColor" fill-rule="evenodd"></path>
</svg>