<svg xmlns="http://www.w3.org/2000/svg" width="33.333" height="27.010" viewBox="0 0 33.333 27.010" fill="none">
  <path d="M 32.5 2.234 C 32.724 2.363 32.916 2.543 33.058 2.76 C 33.201 2.976 33.291 3.223 33.322 3.48 L 33.333 3.677 L 33.333 25.344 C 33.333 25.636 33.256 25.924 33.11 26.177 C 32.964 26.43 32.753 26.641 32.5 26.787 C 32.247 26.933 31.959 27.01 31.667 27.01 C 31.374 27.01 31.087 26.933 30.833 26.787 C 28.945 25.697 26.818 25.086 24.639 25.009 C 22.459 24.931 20.294 25.39 18.333 26.344 L 18.333 1.054 C 20.636 0.194 23.1 -0.146 25.549 0.058 C 27.998 0.262 30.372 1.005 32.5 2.234 Z M 15 1.055 L 15.002 26.345 C 13.118 25.428 11.045 24.968 8.95 25.002 C 6.855 25.036 4.798 25.563 2.945 26.54 L 2.4 26.84 L 2.228 26.914 L 2.147 26.94 L 1.963 26.984 L 1.862 27 L 1.667 27.01 L 1.597 27.01 L 1.413 26.99 L 1.285 26.967 L 1.105 26.914 L 0.895 26.82 L 0.737 26.727 L 0.588 26.615 L 0.488 26.522 L 0.367 26.385 L 0.26 26.237 L 0.223 26.177 L 0.17 26.077 L 0.097 25.905 L 0.07 25.824 L 0.027 25.64 L 0.01 25.539 L 0.003 25.457 L 0 3.677 C 0 3.384 0.077 3.097 0.223 2.844 C 0.37 2.59 0.58 2.38 0.833 2.234 C 2.962 1.005 5.336 0.262 7.785 0.058 C 10.234 -0.145 12.698 0.195 15 1.055 Z" fill="currentColor" fill-rule="nonzero"></path>
</svg>